<svg xmlns="http://www.w3.org/2000/svg" width="209" height="36" fill="none" viewBox="0 0 209 36"><path fill="#9b9b9b" d="M192.993 23.658v-7.946h-13.541l-7.947 7.946zM208.25 3.95h-16.974l-8.01 7.947h24.984zM163.622 31.605l4.069-4.069h13.732v7.947h-17.801z"/><path fill="#9b9b9b" d="M166.61 19.78h8.773l8.01-7.946H166.61zM157.011 31.605h6.611l7.883-7.947h-14.494zM191.276 3.95l-4.068 4.07H161.27V.072h30.006zM20.84 30.206H8.378l-2.162 5.34H.75L12.257 8.592h4.768L28.53 35.546h-5.53zm-1.717-4.26L14.609 14.95l-4.514 10.998zM104.437 18.509c1.589-2.352 5.594-2.607 7.247-2.607v4.578c-2.034 0-4.069.063-5.277.953-1.207.89-1.843 2.098-1.843 3.56v10.553h-4.959V15.902h4.768zM119.376 15.902h-4.958v19.644h4.958zM119.376 7.13h-4.958v5.848h4.958zM143.979 7.13v28.416h-4.768l-.127-2.988a8.3 8.3 0 0 1-2.67 2.48c-1.081.572-2.416.89-3.942.89-1.335 0-2.606-.255-3.687-.7-1.144-.508-2.162-1.144-2.988-2.034a9.6 9.6 0 0 1-1.971-3.179c-.508-1.207-.699-2.606-.699-4.132s.254-2.924.699-4.196c.509-1.271 1.145-2.352 1.971-3.242s1.844-1.589 2.988-2.098 2.352-.763 3.687-.763c1.526 0 2.797.255 3.878.827s1.971 1.335 2.67 2.416V7.193h4.959zm-10.426 24.538c1.653 0 2.924-.572 3.941-1.653s1.526-2.543 1.526-4.323-.509-3.178-1.526-4.322c-1.017-1.081-2.288-1.653-3.941-1.653-1.59 0-2.925.572-3.878 1.653-1.017 1.08-1.526 2.543-1.526 4.322 0 1.78.509 3.18 1.526 4.26 1.017 1.144 2.288 1.716 3.878 1.716M57.202 20.353H44.933v4.259h6.993c-.19 2.161-1.017 3.814-2.416 5.15-1.398 1.27-3.178 1.906-5.467 1.906-1.271 0-2.48-.254-3.496-.699a7 7 0 0 1-2.734-1.97c-.763-.827-1.335-1.844-1.78-3.052s-.636-2.48-.636-3.942.19-2.733.636-3.941c.381-1.208 1.017-2.162 1.78-3.052.763-.826 1.653-1.462 2.733-1.97a9.1 9.1 0 0 1 3.56-.7q4.005 0 6.103 1.907l3.306-3.305c-2.48-1.907-5.658-2.925-9.409-2.925-2.097 0-4.004.318-5.721 1.018-1.716.699-3.179 1.589-4.386 2.797A12.1 12.1 0 0 0 31.2 16.22c-.635 1.717-.953 3.624-.953 5.658s.318 3.942 1.017 5.658c.7 1.717 1.59 3.179 2.797 4.387a12.1 12.1 0 0 0 4.387 2.797c1.716.7 3.623 1.017 5.657 1.017 2.035 0 3.878-.318 5.531-1.017 1.653-.7 3.052-1.59 4.196-2.797q1.716-1.812 2.67-4.387c.636-1.716.954-3.623.954-5.658v-.826c-.191-.127-.255-.445-.255-.7M95.982 20.353h-12.27v4.259h6.993c-.19 2.161-1.017 3.814-2.416 5.15-1.398 1.27-3.178 1.906-5.467 1.906-1.271 0-2.48-.254-3.496-.699a7 7 0 0 1-2.734-1.97c-.763-.827-1.335-1.844-1.78-3.052s-.636-2.48-.636-3.942.19-2.733.636-3.941c.381-1.208 1.017-2.162 1.78-3.052.763-.826 1.653-1.462 2.734-1.97a9.1 9.1 0 0 1 3.56-.7q4.005 0 6.103 1.907l3.305-3.305c-2.479-1.907-5.658-2.925-9.408-2.925-2.098 0-4.005.318-5.722 1.018-1.716.699-3.178 1.589-4.386 2.797a12.1 12.1 0 0 0-2.797 4.386c-.636 1.717-.954 3.624-.954 5.658s.318 3.942 1.017 5.658c.7 1.717 1.59 3.179 2.797 4.387a12.1 12.1 0 0 0 4.387 2.797c1.716.7 3.623 1.017 5.658 1.017 2.034 0 3.878-.318 5.53-1.017 1.653-.7 3.052-1.59 4.196-2.797q1.718-1.812 2.67-4.387c.636-1.716.954-3.623.954-5.658v-.826c-.19-.127-.255-.445-.255-.7"/></svg>